{"title":"Cinema Paradiso *1988*[mini-HD.1080p.AAC.BluRay.x264-LEON 345] [","uid":8917342,"size":2083285900,"categoryP":"video","categoryS":"hd___movies","magnet":"?xt=urn:btih:230e1859970424a750c5b394a3874634a13e3d99&amp;dn=Cinema+Paradiso+%2A1988%2A%5Bmini-HD.1080p.AAC.BluRay.x264-LEON+345%5D+%5B&amp;tr=udp%3A%2F%2Ftracker.openbittorrent.com%3A80&amp;tr=udp%3A%2F%2Fopen.demonii.com%3A1337&amp;tr=udp%3A%2F%2Ftracker.coppersurfer.tk%3A6969&amp;tr=udp%3A%2F%2Fexodus.desync.com%3A6969","seeders":4,"leechers":1,"uploader":"Leon345","files":-1,"time":1379172465,"description":"Cinema Paradiso - Nuovo Cinema Paradiso *1988*[mini-HD.1080p.AAC.BluRay.x264-LEON 345] [Lektor PL]\n====================================================================\n\nIMDB http://www.imdb.com/title/tt0095765/?ref_=sr_1\n\n Produkcja: Francja , WÅ‚ochy \n gatunek: Biograficzny, Dramat\n data premiery: 1988-11-17 (Åšwiat)\n reÅ¼yseria Giuseppe Tornatore \n scenariusz Giuseppe Tornatore, \n muzyka Ennio Morricone,\n\n Obraz Tornatore zwyciÄ™Å¼aÅ‚ w wielu konkursach i festiwalach, m.in Oskar dla najlepszego filmu obcojÄ™zycznego, ZÅ‚oty Glob, nagrody dla reÅ¼ysera w Cannes, Wielkiej Brytani. Film przenosi nas w czasie kilkadziesiÄ…t lat wstecz do maÅ‚ego wÅ‚oskiego miasteczka, gdzie w kaÅ¼dÄ… niedzielÄ™ wszyscy mieszkaÅ„cy zbierajÄ… siÄ™ na rynku, aby oglÄ…dajÄ…c filmy wyÅ›wietlane na Å›cianie koÅ›cioÅ‚a razem poczuÄ‡ magiÄ™ kina i chociaÅ¼ na chwilÄ™ oderwaÄ‡ siÄ™ od rzeczywistoÅ›ci. Obraz ten pobudza do Å›miechu, wzrusza i raduje. PoruszajÄ…ca opowieÅ›Ä‡ o przyjaÅºni, mÅ‚odoÅ›ci i miÅ‚oÅ›ci do kina, przepeÅ‚niona magiÄ… kina - obowiÄ…zkowo do obejrzenia!!\n\n General\n\n Format : MPEG-4\n Format profile : Base Media\n Codec ID : isom\n File size : 1.94 GiB\n Duration : 2h 3mn\n Overall bit rate mode : Variable\n Overall bit rate : 2 244 Kbps\n Movie name : Cinema Paradiso 1988 miniHD(Leon 345)\n Encoded date : UTC 2013-09-13 19:09:56\n Tagged date : UTC 2013-09-13 19:14:09\n\n Video\n ID : 1\n Format : AVC\n Format/Info : Advanced Video Codec\n Format profile : &lt;a class=&quot;__cf_email__&quot; href=&quot;/cdn-cgi/l/email-protection&quot; data-cfemail=&quot;6b23020c032b275f455a&quot;&gt;[email&amp;#160;protected]&lt;/a&gt;&lt;script cf-hash='f9e31' type=&quot;text/javascript&quot;&gt;\n/* &lt;![CDATA[ */!function(){try{var t=&quot;currentScript&quot;in document?document.currentScript:function(){for(var t=document.getElementsByTagName(&quot;script&quot;),e=t.length;e--;)if(t[e].getAttribute(&quot;cf-hash&quot;))return t[e]}();if(t&amp;&amp;t.previousSibling){var e,r,n,i,c=t.previousSibling,a=c.getAttribute(&quot;data-cfemail&quot;);if(a){for(e=&quot;&quot;,r=parseInt(a.substr(0,2),16),n=2;a.length-n;n+=2)i=parseInt(a.substr(n,2),16)^r,e+=String.fromCharCode(i);e=document.createTextNode(e),c.parentNode.replaceChild(e,c)}}}catch(u){}}();/* ]]&gt; */&lt;/script&gt;\n Format settings, CABAC : Yes\n Format settings, ReFrames : 2 frames\n Codec ID : avc1\n Codec ID/Info : Advanced Video Coding\n Duration : 2h 3mn\n Bit rate : 2 142 Kbps\n Width : 1 920 pixels\n Height : 1 080 pixels\n Display aspect ratio : 16:9 (1.64:1)\n Frame rate mode : Constant\n Frame rate : 23.976 fps\n Color space : YUV\n Chroma subsampling : 4:2:0\n Bit depth : 8 bits\n Scan type : Progressive\n Bits/(Pixel*Frame) : 0.043\n Stream size : 1.85 GiB (95%)\n Title : Rip by Leon 345\n Writing library : x264 core\n Language : English\n Encoded date : UTC 2013-09-13 19:09:56\n Tagged date : UTC 2013-09-13 19:12:02\n Color primaries : BT.709\n Transfer characteristics : BT.709\n Matrix coefficients : BT.709\n\n Audio\n ID : 2\n Format : AAC\n Format/Info : Advanced Audio Codec\n Format profile : LC\n Codec ID : 40\n Duration : 2h 3mn\n Bit rate mode : Variable\n Bit rate : 96.0 Kbps\n Maximum bit rate : 116 Kbps\n Channel(s) : 2 channels\n Channel positions : Front: L R\n Sampling rate : 48.0 KHz\n Compression mode : Lossy\n Stream size : 84.0 MiB (4%)\n Title : Lektor PL dopasowanie i synchro Leon 345\n Language : English\n Encoded date : UTC 2013-09-13 19:11:38\n Tagged date : UTC 2013-09-13 19:12:02\n\n Source [thx]:\n A/V-Nuovo Cinema Paradiso (1988) 1080p BD-Remux-HDCLUB\n Lektor PL dopasowanie i synchro Leon 345","torrent":{"xt":"urn:btih:230e1859970424a750c5b394a3874634a13e3d99","amp;dn":"Cinema+Paradiso+%2A1988%2A%5Bmini-HD.1080p.AAC.BluRay.x264-LEON+345%5D+%5B","amp;tr":["udp%3A%2F%2Ftracker.openbittorrent.com%3A80","udp%3A%2F%2Fopen.demonii.com%3A1337","udp%3A%2F%2Ftracker.coppersurfer.tk%3A6969","udp%3A%2F%2Fexodus.desync.com%3A6969"],"infoHash":"230e1859970424a750c5b394a3874634a13e3d99","infoHashBuffer":{"type":"Buffer","data":[35,14,24,89,151,4,36,167,80,197,179,148,163,135,70,52,161,62,61,153]},"announce":[],"urlList":[]}}